<?xml version="1.0" encoding="utf-8"?>
<!-- Generator: Adobe Illustrator 26.5.0, SVG Export Plug-In . SVG Version: 6.00 Build 0)  -->
<svg version="1.1" id="Layer_1" xmlns="http://www.w3.org/2000/svg" xmlns:xlink="http://www.w3.org/1999/xlink" x="0px" y="0px"
	 viewBox="0 0 512 512" style="enable-background:new 0 0 512 512;" xml:space="preserve">
<style type="text/css">
	.st0{fill:#FF5F00;}
	.st1{fill:#EB001B;}
	.st2{fill:#F79E1B;}
</style>
<g id="XMLID_1_">
	<path id="XMLID_2_" d="M93.21,453.71v-26.36c0-10.1-6.17-16.69-16.69-16.69c-5.33,0-10.94,1.82-15.01,7.43
		c-3.09-4.77-7.43-7.43-14.02-7.43c-4.35,0-8.83,1.26-12.34,6.17v-5.33h-9.12v42.21h9.26v-23.28c0-7.43,3.93-10.94,10.1-10.94
		s9.26,3.93,9.26,10.94v23.28h9.26v-23.28c0-7.43,4.35-10.94,10.1-10.94c6.17,0,9.26,3.93,9.26,10.94v23.28H93.21z M229.94,411.5
		h-15.01v-12.76h-9.26v12.76h-8.41v8.41h8.41v19.35c0,9.68,3.93,15.43,14.44,15.43c3.93,0,8.41-1.26,11.36-3.09l-2.66-7.85
		c-2.66,1.82-5.75,2.24-7.85,2.24c-4.35,0-6.17-2.66-6.17-7.01v-18.93h15.01v-8.55H229.94z M308.05,410.66
		c-5.33,0-8.83,2.66-10.94,6.17v-5.33h-9.26v42.21h9.26v-23.7c0-7.01,3.09-10.94,8.83-10.94c1.82,0,3.93,0.42,5.75,0.84l2.66-8.83
		C312.54,410.66,309.87,410.66,308.05,410.66z M189.83,415.01c-4.35-3.09-10.52-4.35-17.11-4.35c-10.52,0-17.53,5.33-17.53,13.6
		c0,7.01,5.33,10.94,14.44,12.34l4.35,0.42c4.77,0.84,7.43,2.24,7.43,4.35c0,3.09-3.51,5.33-9.68,5.33
		c-6.17,0-10.94-2.24-14.02-4.35l-4.35,7.01c4.77,3.51,11.36,5.33,17.95,5.33c12.34,0,19.35-5.75,19.35-13.6
		c0-7.43-5.75-11.36-14.44-12.76l-4.35-0.42c-3.93-0.42-7.01-1.26-7.01-3.93c0-3.09,3.09-4.77,7.85-4.77
		c5.33,0,10.52,2.24,13.18,3.51L189.83,415.01z M435.1,410.66c-5.33,0-8.83,2.66-10.94,6.17v-5.33h-9.26v42.21h9.26v-23.7
		c0-7.01,3.09-10.94,8.83-10.94c1.82,0,3.93,0.42,5.75,0.84l2.66-8.83C439.45,410.66,436.78,410.66,435.1,410.66z M317.3,432.54
		c0,12.76,8.83,22.02,22.44,22.02c6.17,0,10.52-1.26,15.01-4.77l-4.35-7.43c-3.51,2.66-7.01,3.93-10.94,3.93
		c-7.43,0-12.76-5.33-12.76-13.6c0-7.85,5.33-13.18,12.76-13.6c3.93,0,7.43,1.26,10.94,3.93l4.35-7.43
		c-4.35-3.51-8.83-4.77-15.01-4.77C326.14,410.66,317.3,419.92,317.3,432.54z M402.57,432.54V411.5h-9.26v5.33
		c-3.09-3.93-7.43-6.17-13.18-6.17c-11.92,0-21.04,9.26-21.04,22.02s9.26,22.02,21.04,22.02c6.17,0,10.52-2.24,13.18-6.17v5.33h9.26
		V432.54z M368.77,432.54c0-7.43,4.77-13.6,12.76-13.6c7.43,0,12.76,5.75,12.76,13.6c0,7.43-5.33,13.6-12.76,13.6
		C373.54,445.72,368.77,440.11,368.77,432.54z M258.4,410.66c-12.34,0-21.04,8.83-21.04,22.02c0,13.18,8.83,22.02,21.6,22.02
		c6.17,0,12.34-1.82,17.11-5.75l-4.35-6.59c-3.51,2.66-7.85,4.35-12.34,4.35c-5.75,0-11.36-2.66-12.76-10.1h31.13v-3.51
		C278.18,419.35,270.32,410.66,258.4,410.66z M258.4,418.51c5.75,0,9.68,3.51,10.52,10.1H246.9
		C247.89,423,251.81,418.51,258.4,418.51z M487.41,432.54v-37.72h-9.26v22.02c-3.09-3.93-7.43-6.17-13.18-6.17
		c-11.92,0-21.04,9.26-21.04,22.02s9.26,22.02,21.04,22.02c6.17,0,10.52-2.24,13.18-6.17v5.33h9.26V432.54z M453.47,432.54
		c0-7.43,4.77-13.6,12.76-13.6c7.43,0,12.76,5.75,12.76,13.6c0,7.43-5.33,13.6-12.76,13.6
		C458.38,445.72,453.47,440.11,453.47,432.54z M145.09,432.54V411.5h-9.26v5.33c-3.09-3.93-7.43-6.17-13.18-6.17
		c-11.92,0-21.04,9.26-21.04,22.02s9.26,22.02,21.04,22.02c6.17,0,10.52-2.24,13.18-6.17v5.33h9.26V432.54z M110.88,432.54
		c0-7.43,4.77-13.6,12.76-13.6c7.43,0,12.76,5.75,12.76,13.6c0,7.43-5.33,13.6-12.76,13.6
		C115.64,445.72,110.88,440.11,110.88,432.54z"/>
	<rect id="XMLID_17_" x="186.88" y="91.2" class="st0" width="138.41" height="248.64"/>
	<path id="XMLID_18_" class="st1" d="M195.58,215.59c0-50.48,23.7-95.36,60.16-124.39c-26.79-21.04-60.58-33.8-97.6-33.8
		c-87.37,0-158.19,70.68-158.19,158.19c0,87.37,70.68,158.19,158.19,158.19c36.88,0,70.68-12.76,97.6-33.8
		C219.28,311.37,195.58,266.08,195.58,215.59z"/>
	<path id="XMLID_19_" class="st2" d="M511.95,215.59c0,87.37-70.68,158.19-158.19,158.19c-36.88,0-70.68-12.76-97.6-33.8
		c36.88-29.03,60.16-73.76,60.16-124.39c0-50.48-23.7-95.36-60.16-124.39c26.79-21.04,60.58-33.8,97.6-33.8
		C441.27,57.41,511.95,128.51,511.95,215.59z"/>
</g>
</svg>
