<?xml version="1.0" encoding="utf-8"?>
<!-- Generator: Adobe Illustrator 28.0.0, SVG Export Plug-In . SVG Version: 6.00 Build 0)  -->
<svg version="1.1"
	 id="Layer_1" xmlns:svg="http://www.w3.org/2000/svg" xmlns:sodipodi="http://sodipodi.sourceforge.net/DTD/sodipodi-0.dtd" xmlns:inkscape="http://www.inkscape.org/namespaces/inkscape" xmlns:rdf="http://www.w3.org/1999/02/22-rdf-syntax-ns#" xmlns:cc="http://creativecommons.org/ns#" xmlns:dc="http://purl.org/dc/elements/1.1/" sodipodi:docname="Visa_2021.svg"
	 xmlns="http://www.w3.org/2000/svg" xmlns:xlink="http://www.w3.org/1999/xlink" x="0px" y="0px" viewBox="0 0 512 512"
	 style="enable-background:new 0 0 512 512;" xml:space="preserve">
<style type="text/css">
	.st0{fill:#1434CB;}
</style>
<sodipodi:namedview  bordercolor="#666666" borderopacity="1" fit-margin-bottom="0.5" fit-margin-left="0.5" fit-margin-right="0.5" fit-margin-top="0.5" gridtolerance="10" guidetolerance="10" id="namedview3735" inkscape:current-layer="Layer_1" inkscape:cx="473.80866" inkscape:cy="-26.853447" inkscape:document-rotation="0" inkscape:pageopacity="0" inkscape:pageshadow="2" inkscape:window-height="705" inkscape:window-maximized="1" inkscape:window-width="1366" inkscape:window-x="-8" inkscape:window-y="-8" inkscape:zoom="0.49497088" objecttolerance="10" pagecolor="#ffffff" showgrid="false">
	<inkscape:grid  empspacing="5" enabled="true" id="grid3787" snapvisiblegridlinesonly="true" type="xygrid" visible="true">
		</inkscape:grid>
</sodipodi:namedview>
<path id="path3789" inkscape:connector-curvature="0" class="st0" d="M333.48,173.05c-36.35,0-68.84,18.84-68.84,53.66
	c0,39.92,57.62,42.68,57.62,62.74c0,8.45-9.68,16.01-26.21,16.01c-23.46,0-40.99-10.56-40.99-10.56l-7.5,35.13
	c0,0,20.2,8.92,47.01,8.92c39.75,0,71.02-19.77,71.02-55.18c0-42.19-57.86-44.86-57.86-63.48c0-6.62,7.94-13.86,24.43-13.86
	c18.6,0,33.77,7.68,33.77,7.68l7.34-33.93C373.28,180.18,356.77,173.05,333.48,173.05L333.48,173.05z M0.88,175.61L0,180.74
	c0,0,15.29,2.8,29.07,8.38c17.74,6.4,19,10.13,21.99,21.71l32.55,125.48h43.63l67.22-160.69h-43.53l-43.19,109.25l-17.63-92.61
	c-1.62-10.6-9.8-16.65-19.83-16.65C70.28,175.61,0.88,175.61,0.88,175.61z M211.97,175.61l-34.15,160.69h41.51l34.03-160.69
	L211.97,175.61L211.97,175.61z M443.5,175.61c-10.01,0-15.31,5.36-19.21,14.72l-60.82,145.97h43.53l8.42-24.33h53.04l5.12,24.33H512
	l-33.51-160.69L443.5,175.61L443.5,175.61z M449.16,219.03l12.9,60.3h-34.57L449.16,219.03L449.16,219.03z"/>
</svg>
